<svg width="238" height="52" viewBox="0 0 238 52" fill="none" xmlns="http://www.w3.org/2000/svg">
<path d="M64.152 37V15.1818H72.5043C74.081 15.1818 75.3913 15.4304 76.4354 15.9276C77.4865 16.4176 78.2713 17.0888 78.7898 17.9411C79.3153 18.7933 79.5781 19.7592 79.5781 20.8388C79.5781 21.7266 79.4077 22.4865 79.0668 23.1186C78.7259 23.7436 78.2678 24.2514 77.6925 24.642C77.1172 25.0327 76.4744 25.3132 75.7642 25.4837V25.6967C76.5384 25.7393 77.2805 25.9773 77.9908 26.4105C78.7081 26.8366 79.294 27.4403 79.7486 28.2216C80.2031 29.0028 80.4304 29.9474 80.4304 31.0554C80.4304 32.1847 80.157 33.2003 79.6101 34.1023C79.0632 34.9972 78.2393 35.7038 77.1385 36.2223C76.0376 36.7408 74.6527 37 72.9837 37H64.152ZM68.1044 33.6974H72.3551C73.7898 33.6974 74.8232 33.424 75.4553 32.8771C76.0945 32.3232 76.4141 31.6129 76.4141 30.7464C76.4141 30.1001 76.2543 29.5178 75.9347 28.9993C75.6151 28.4737 75.1605 28.0618 74.571 27.7635C73.9815 27.4581 73.2784 27.3054 72.4616 27.3054H68.1044V33.6974ZM68.1044 24.4609H72.0142C72.696 24.4609 73.3104 24.3366 73.8572 24.0881C74.4041 23.8324 74.8338 23.4737 75.1463 23.0121C75.4659 22.5433 75.6257 21.9893 75.6257 21.3501C75.6257 20.505 75.3274 19.8089 74.7308 19.2621C74.1413 18.7152 73.2642 18.4418 72.0994 18.4418H68.1044V24.4609ZM97.6223 15.1818H101.575V29.4361C101.575 30.9986 101.205 32.3729 100.467 33.5589C99.7353 34.745 98.7054 35.6719 97.3773 36.3395C96.0492 37 94.4973 37.3303 92.7218 37.3303C90.9391 37.3303 89.3837 37 88.0556 36.3395C86.7275 35.6719 85.6976 34.745 84.9661 33.5589C84.2346 32.3729 83.8688 30.9986 83.8688 29.4361V15.1818H87.8212V29.1058C87.8212 30.0149 88.0201 30.8246 88.4178 31.5348C88.8226 32.245 89.3908 32.8026 90.1223 33.2074C90.8539 33.6051 91.7203 33.804 92.7218 33.804C93.7232 33.804 94.5897 33.6051 95.3212 33.2074C96.0598 32.8026 96.628 32.245 97.0257 31.5348C97.4235 30.8246 97.6223 30.0149 97.6223 29.1058V15.1818ZM120.487 22.1491C120.31 21.5739 120.065 21.0589 119.752 20.6044C119.447 20.1428 119.077 19.7486 118.644 19.4219C118.218 19.0952 117.728 18.8501 117.174 18.6868C116.62 18.5163 116.016 18.4311 115.363 18.4311C114.191 18.4311 113.147 18.7259 112.231 19.3153C111.315 19.9048 110.594 20.7713 110.068 21.9148C109.55 23.0511 109.29 24.4361 109.29 26.0696C109.29 27.7173 109.55 29.1129 110.068 30.2564C110.587 31.3999 111.308 32.2699 112.231 32.8665C113.154 33.456 114.227 33.7507 115.448 33.7507C116.556 33.7507 117.515 33.5376 118.325 33.1115C119.141 32.6854 119.77 32.0817 120.21 31.3004C120.651 30.5121 120.871 29.5888 120.871 28.5305L121.766 28.669H115.842V25.5795H124.695V28.2003C124.695 30.0682 124.298 31.6839 123.502 33.0476C122.707 34.4112 121.613 35.4624 120.221 36.201C118.829 36.9325 117.231 37.2983 115.427 37.2983C113.417 37.2983 111.652 36.8473 110.132 35.9453C108.619 35.0362 107.437 33.7472 106.585 32.0781C105.739 30.402 105.317 28.4134 105.317 26.1122C105.317 24.3509 105.565 22.7777 106.062 21.3928C106.567 20.0078 107.27 18.8324 108.172 17.8665C109.074 16.8935 110.132 16.1548 111.347 15.6506C112.561 15.1392 113.882 14.8835 115.31 14.8835C116.517 14.8835 117.643 15.0611 118.687 15.4162C119.731 15.7642 120.658 16.2614 121.467 16.9077C122.284 17.554 122.955 18.321 123.481 19.2088C124.006 20.0966 124.351 21.0767 124.514 22.1491H120.487ZM143.134 22.1491C142.956 21.5739 142.711 21.0589 142.399 20.6044C142.093 20.1428 141.724 19.7486 141.291 19.4219C140.865 19.0952 140.374 18.8501 139.82 18.6868C139.267 18.5163 138.663 18.4311 138.009 18.4311C136.838 18.4311 135.794 18.7259 134.877 19.3153C133.961 19.9048 133.24 20.7713 132.715 21.9148C132.196 23.0511 131.937 24.4361 131.937 26.0696C131.937 27.7173 132.196 29.1129 132.715 30.2564C133.233 31.3999 133.954 32.2699 134.877 32.8665C135.801 33.456 136.873 33.7507 138.095 33.7507C139.203 33.7507 140.161 33.5376 140.971 33.1115C141.788 32.6854 142.416 32.0817 142.857 31.3004C143.297 30.5121 143.517 29.5888 143.517 28.5305L144.412 28.669H138.489V25.5795H147.342V28.2003C147.342 30.0682 146.944 31.6839 146.149 33.0476C145.353 34.4112 144.259 35.4624 142.867 36.201C141.475 36.9325 139.877 37.2983 138.073 37.2983C136.063 37.2983 134.298 36.8473 132.779 35.9453C131.266 35.0362 130.083 33.7472 129.231 32.0781C128.386 30.402 127.963 28.4134 127.963 26.1122C127.963 24.3509 128.212 22.7777 128.709 21.3928C129.213 20.0078 129.916 18.8324 130.818 17.8665C131.72 16.8935 132.779 16.1548 133.993 15.6506C135.208 15.1392 136.529 14.8835 137.956 14.8835C139.164 14.8835 140.289 15.0611 141.333 15.4162C142.377 15.7642 143.304 16.2614 144.114 16.9077C144.931 17.554 145.602 18.321 146.127 19.2088C146.653 20.0966 146.997 21.0767 147.161 22.1491H143.134ZM155.116 15.1818V37H151.164V15.1818H155.116ZM177.326 15.1818V37H173.81L163.53 22.1385H163.349V37H159.396V15.1818H162.933L173.203 30.054H173.395V15.1818H177.326ZM196.249 22.1491C196.071 21.5739 195.826 21.0589 195.514 20.6044C195.208 20.1428 194.839 19.7486 194.406 19.4219C193.98 19.0952 193.49 18.8501 192.936 18.6868C192.382 18.5163 191.778 18.4311 191.125 18.4311C189.953 18.4311 188.909 18.7259 187.993 19.3153C187.076 19.9048 186.355 20.7713 185.83 21.9148C185.311 23.0511 185.052 24.4361 185.052 26.0696C185.052 27.7173 185.311 29.1129 185.83 30.2564C186.348 31.3999 187.069 32.2699 187.993 32.8665C188.916 33.456 189.988 33.7507 191.21 33.7507C192.318 33.7507 193.277 33.5376 194.086 33.1115C194.903 32.6854 195.532 32.0817 195.972 31.3004C196.412 30.5121 196.632 29.5888 196.632 28.5305L197.527 28.669H191.604V25.5795H200.457V28.2003C200.457 30.0682 200.059 31.6839 199.264 33.0476C198.468 34.4112 197.375 35.4624 195.983 36.201C194.591 36.9325 192.993 37.2983 191.189 37.2983C189.179 37.2983 187.414 36.8473 185.894 35.9453C184.381 35.0362 183.199 33.7472 182.346 32.0781C181.501 30.402 181.078 28.4134 181.078 26.1122C181.078 24.3509 181.327 22.7777 181.824 21.3928C182.328 20.0078 183.032 18.8324 183.934 17.8665C184.836 16.8935 185.894 16.1548 187.108 15.6506C188.323 15.1392 189.644 14.8835 191.071 14.8835C192.279 14.8835 193.404 15.0611 194.449 15.4162C195.493 15.7642 196.419 16.2614 197.229 16.9077C198.046 17.554 198.717 18.321 199.243 19.2088C199.768 20.0966 200.113 21.0767 200.276 22.1491H196.249ZM215.673 15.1818V37H211.72V15.1818H215.673ZM218.994 18.495V15.1818H236.402V18.495H229.658V37H225.738V18.495H218.994Z" fill="white"/>
<mask id="mask0_1_17" style="mask-type:alpha" maskUnits="userSpaceOnUse" x="0" y="0" width="49" height="52">
<path d="M24.5 49.6562C33.8198 49.6562 41.375 41.9751 41.375 32.5V21.0625C41.375 11.5874 33.8198 3.90625 24.5 3.90625C15.1802 3.90625 7.625 11.5874 7.625 21.0625V32.5C7.625 41.9751 15.1802 49.6562 24.5 49.6562ZM24.5 49.6562V28.6875M41.375 28.6875H47M2 28.6875H7.625M2 36.3125H8.04219M2 21.0625H47M40.9578 36.3125H47M41.375 2L35.457 8.0166M7.625 2L13.543 8.0166" stroke="url(#paint0_linear_1_17)" stroke-width="3" stroke-linecap="round" stroke-linejoin="round"/>
</mask>
<g mask="url(#mask0_1_17)">
<rect x="-3" y="-1" width="59" height="53" fill="url(#paint1_linear_1_17)"/>
</g>
<defs>
<linearGradient id="paint0_linear_1_17" x1="10.584" y1="2" x2="10.584" y2="8.0166" gradientUnits="userSpaceOnUse">
<stop stop-color="#2879FD"/>
<stop offset="1" stop-color="#3525FC"/>
</linearGradient>
<linearGradient id="paint1_linear_1_17" x1="26.5" y1="-1" x2="26.5" y2="52" gradientUnits="userSpaceOnUse">
<stop stop-color="#FF0000"/>
<stop offset="1" stop-color="#770000"/>
</linearGradient>
</defs>
</svg>
